<svg width="16" height="18" viewBox="0 0 16 18" fill="none" xmlns="http://www.w3.org/2000/svg">
<path d="M15.3027 9.42385C15.6309 8.99025 15.8125 8.459 15.8125 7.90627C15.8125 7.02931 15.3223 6.19923 14.5332 5.73634C14.3301 5.61719 14.0988 5.55448 13.8633 5.5547H9.17969L9.29688 3.15431C9.32422 2.57423 9.11914 2.02345 8.7207 1.60353C8.52517 1.39655 8.28926 1.23188 8.02757 1.11967C7.76588 1.00747 7.48395 0.950127 7.19922 0.951186C6.18359 0.951186 5.28516 1.63478 5.01562 2.6133L3.33789 8.68752H0.8125C0.466797 8.68752 0.1875 8.96681 0.1875 9.31252V16.4219C0.1875 16.7676 0.466797 17.0469 0.8125 17.0469H12.5566C12.7363 17.0469 12.9121 17.0117 13.0742 16.9414C14.0039 16.5449 14.6035 15.6367 14.6035 14.6289C14.6035 14.3828 14.5684 14.1406 14.498 13.9063C14.8262 13.4727 15.0078 12.9414 15.0078 12.3887C15.0078 12.1426 14.9727 11.9004 14.9023 11.666C15.2305 11.2324 15.4121 10.7012 15.4121 10.1485C15.4082 9.90236 15.373 9.65822 15.3027 9.42385ZM1.59375 15.6406V10.0938H3.17578V15.6406H1.59375ZM14.0234 8.74611L13.5957 9.1172L13.8672 9.6133C13.9566 9.77672 14.003 9.96021 14.002 10.1465C14.002 10.4688 13.8613 10.7754 13.6191 10.9863L13.1914 11.3574L13.4629 11.8535C13.5523 12.017 13.5987 12.2004 13.5977 12.3867C13.5977 12.709 13.457 13.0156 13.2148 13.2266L12.7871 13.5977L13.0586 14.0938C13.148 14.2572 13.1944 14.4407 13.1934 14.627C13.1934 15.0645 12.9355 15.459 12.5371 15.6387H4.42578V10.0313L6.36914 2.99025C6.41925 2.80978 6.52682 2.65057 6.67555 2.53673C6.82428 2.42289 7.00607 2.36063 7.19336 2.35939C7.3418 2.35939 7.48828 2.40236 7.60547 2.49025C7.79883 2.63478 7.90234 2.85353 7.89062 3.08595L7.70312 6.96095H13.8438C14.1914 7.17384 14.4062 7.53322 14.4062 7.90627C14.4062 8.22853 14.2656 8.53322 14.0234 8.74611Z" fill="#828282"/>
</svg>
